<?xml version="1.0" encoding="utf-8"?>
<!-- Generator: Adobe Illustrator 27.5.0, SVG Export Plug-In . SVG Version: 6.00 Build 0)  -->
<svg version="1.1" xmlns="http://www.w3.org/2000/svg" xmlns:xlink="http://www.w3.org/1999/xlink" x="0px" y="0px"
	 viewBox="0 0 1200 1200" style="enable-background:new 0 0 1200 1200;" xml:space="preserve">
<g id="background">
	<g>
		<path style="fill:#1B763B;" d="M463.313,558.214c71.898,69.095,177.687,93.3,204.783,97.648
			c-18.574-128.28-142.132-218.592-273.57-191.689C376.866,617,529.336,731.2,670.018,674.278c-0.005-0.11-0.016-0.216-0.023-0.324
			C520.736,655.742,463.313,558.214,463.313,558.214z"/>
		<path style="fill:#8BC53F;" d="M794.565,464.173c-14.957-3.062-30.445-4.671-46.307-4.671
			c-53.369,0-102.448,18.255-141.441,48.794c19.728,18.128,36.47,39.473,49.455,63.195c30.689-17.396,78.274-46.751,95.026-70.699
			c-20.98,38.21-45.848,55.714-87.925,84.763c11.752,25.187,19.413,52.691,21.988,81.724
			c65.594-33.203,110.598-101.186,110.598-179.737C795.958,479.63,795.451,471.844,794.565,464.173z"/>
	</g>
	<path style="fill:#F6921E;" d="M539.792,384.081l14.586,85.425c10.605,4.728,20.778,10.295,30.444,16.609l-27.004-105.865
		c20.327-9.413,32.772-39.729,25.984-71.663c-7.523-35.398-35.824-59.372-63.216-53.55c-27.391,5.822-43.493,39.235-35.971,74.633
		C491.403,361.605,515.106,384.234,539.792,384.081z"/>
	<path style="fill:#F6921E;" d="M634.471,385.835l-25.143,98.572c9.538-6.053,19.446-11.329,29.685-15.776l13.482-78.962
		c22.396-0.335,39.234-24.425,46.024-56.361c2.221-10.452,7.364-38.698,3.656-56.41c-0.291-1.407-1.529-2.416-2.969-2.416
		c-1.437-0.002-2.674,1.001-2.978,2.406l-13.869,65.268c-0.3,1.419-1.156,2.662-2.373,3.447c-1.215,0.793-2.697,1.067-4.118,0.767
		l-0.314-0.068c-2.955-0.628-4.841-3.534-4.217-6.489l13.808-64.947c0.685-3.213-1.365-6.368-4.578-7.051l-0.108-0.022
		c-1.543-0.328-3.152-0.03-4.475,0.829c-1.323,0.858-2.247,2.208-2.575,3.749l-13.808,64.947c-0.305,1.421-1.154,2.66-2.373,3.452
		c-1.215,0.793-2.697,1.067-4.118,0.765l-0.31-0.068c-2.955-0.629-4.845-3.534-4.214-6.489l13.801-64.948
		c0.328-1.542,0.028-3.152-0.828-4.473c-0.861-1.323-2.211-2.25-3.75-2.58c-3.274-0.693-6.487,1.394-7.181,4.665l-13.78,64.839
		c-0.303,1.421-1.156,2.664-2.373,3.452c-1.219,0.79-2.702,1.064-4.118,0.764l-0.314-0.068c-2.955-0.626-4.841-3.534-4.214-6.491
		l13.933-65.544c0.291-1.361-0.385-2.744-1.633-3.357c-1.247-0.613-2.758-0.301-3.658,0.76
		c-11.608,13.71-18.907,41.387-21.407,53.146C606.277,347.079,611.856,375.936,634.471,385.835z"/>
	<g>
		<path style="fill:#52443B;" d="M374.867,830.934h-45.874c0.234,5.237,1.581,9.311,4.04,12.221
			c2.46,2.911,6.503,4.364,12.126,4.364c2.812,0,6.064-0.398,9.755-1.195c3.689-0.793,7.936-2.102,12.74-3.922
			c3.865,4,6.268,9.411,7.205,16.23c-9.409,6.704-20.934,10.055-34.576,10.055c-7.41,0-13.614-1.177-18.611-3.526
			c-5-2.352-9.058-5.647-12.173-9.881c-3.118-4.234-5.323-9.231-6.616-14.994c-1.296-5.763-1.941-12.055-1.941-18.876
			c0-6.586,0.794-12.672,2.382-18.259c1.587-5.585,3.997-10.436,7.233-14.554c3.233-4.116,7.349-7.349,12.349-9.703
			c4.997-2.352,10.848-3.528,17.552-3.528c5.646,0,10.731,0.943,15.26,2.821c4.526,1.884,8.38,4.471,11.555,7.762
			c3.175,3.295,5.615,7.233,7.321,11.821c1.702,4.586,2.557,9.587,2.557,14.994C377.153,819.938,376.39,825.995,374.867,830.934z
			 M328.816,811.882h23.111v-1.94c0-4.35-0.965-7.939-2.889-10.762c-1.927-2.823-4.815-4.234-8.667-4.234
			c-3.734,0-6.508,1.323-8.316,3.97C330.247,801.562,329.167,805.884,328.816,811.882z"/>
		<path style="fill:#52443B;" d="M437.839,816.997v-2.292c0-6.586-0.705-11.379-2.118-14.378c-1.411-2.999-4.056-4.5-7.939-4.5
			c-4.118,0-6.999,2.03-8.644,6.088c-1.648,4.056-2.47,10.79-2.47,20.199c0,4.706,0.322,8.644,0.969,11.819
			c0.645,3.175,1.588,5.734,2.823,7.675c1.235,1.94,2.793,3.351,4.675,4.234c1.88,0.881,4.114,1.323,6.704,1.323
			c2.703,0,5.702-0.587,8.997-1.764c3.291-1.175,6.819-3.057,10.584-5.644c1.059,0.589,2.144,1.441,3.263,2.557
			c1.117,1.119,2.146,2.382,3.087,3.792c0.941,1.413,1.764,2.911,2.472,4.5c0.705,1.586,1.235,3.087,1.586,4.498
			c-3.88,4.118-8.939,7.409-15.171,9.879c-6.234,2.47-12.586,3.704-19.052,3.704c-12.586,0-22.229-4.114-28.932-12.348
			c-6.703-8.23-10.054-19.935-10.054-35.106c0-7.76,1.085-14.522,3.263-20.287c2.176-5.76,5.055-10.524,8.644-14.29
			c3.587-3.762,7.703-6.584,12.35-8.468c4.644-1.878,9.495-2.821,14.554-2.821c5.173,0,9.907,0.705,14.2,2.116
			c4.292,1.413,7.996,3.413,11.113,5.998c3.115,2.59,5.527,5.677,7.233,9.261c1.704,3.591,2.557,7.559,2.557,11.909
			c0,4.939-1.441,8.41-4.322,10.408c-2.883,2.002-6.438,2.999-10.672,2.999C444.013,818.057,440.776,817.703,437.839,816.997z"/>
		<path style="fill:#52443B;" d="M539.803,785.773c8.468,8.468,12.702,20.582,12.702,36.341c0,7.055-0.913,13.467-2.735,19.228
			c-1.824,5.765-4.47,10.674-7.938,14.732c-3.471,4.056-7.735,7.175-12.79,9.349c-5.057,2.174-10.88,3.263-17.465,3.263
			c-6.588,0-12.378-1.119-17.376-3.351c-5.001-2.234-9.235-5.381-12.702-9.439c-3.471-4.056-6.086-8.965-7.85-14.73
			c-1.764-5.76-2.646-12.112-2.646-19.052c0-7.057,0.881-13.435,2.646-19.142c1.764-5.703,4.35-10.612,7.762-14.73
			c3.409-4.116,7.643-7.291,12.702-9.527c5.055-2.232,10.876-3.351,17.464-3.351C523.221,775.365,532.628,778.836,539.803,785.773z
			 M511.666,796.005c-2.607,0-4.709,0.617-6.308,1.852c-1.598,1.235-2.871,2.911-3.82,5.027c-0.947,2.118-1.598,4.56-1.954,7.321
			c-0.356,2.765-0.532,5.734-0.532,8.909c0,4.939,0.146,9.203,0.444,12.79c0.296,3.589,0.887,6.588,1.774,8.997
			c0.889,2.412,2.134,4.206,3.733,5.379c1.598,1.179,3.7,1.764,6.308,1.764c5.209,0,8.644-2.262,10.302-6.792
			c1.66-4.526,2.49-10.966,2.49-19.317c0-8.466-0.829-14.906-2.49-19.316C519.954,798.209,516.637,796.005,511.666,796.005z"/>
		<path style="fill:#81BA41;" d="M573.145,866.04v-68.976l-15.172,0.176c-0.707-2.913-1.059-6.12-1.059-9.615
			c0-3.495,0.352-6.759,1.059-9.791l13.759,0.176c-0.59-4.35-0.881-8.29-0.881-11.818c0-8.822,2.849-16.143,8.556-21.963
			c5.703-5.823,13.142-8.734,22.316-8.734c9.175,0,18.17,1.649,26.99,4.939c0.116,3.061-0.412,6.382-1.587,9.969
			c-1.179,3.589-2.645,6.322-4.412,8.202c-5.526-1.644-10.054-2.47-13.583-2.47c-7.88,0-11.821,4.058-11.821,12.172
			c0,3.413,0.236,6.704,0.707,9.879l23.11-0.352c0.707,3.031,1.059,6.296,1.059,9.791c0,3.495-0.352,6.702-1.059,9.615
			l-21.168-0.354v69.154c-4,0.706-8.411,1.059-13.232,1.059C581.905,867.099,577.379,866.746,573.145,866.04z"/>
		<path style="fill:#81BA41;" d="M693.807,785.773c8.468,8.468,12.704,20.582,12.704,36.341c0,7.055-0.915,13.467-2.737,19.228
			c-1.822,5.765-4.468,10.674-7.936,14.732c-3.473,4.056-7.737,7.175-12.792,9.349c-5.055,2.174-10.878,3.263-17.463,3.263
			c-6.59,0-12.38-1.119-17.375-3.351c-5.003-2.234-9.235-5.381-12.704-9.439c-3.469-4.056-6.086-8.965-7.848-14.73
			c-1.766-5.76-2.646-12.112-2.646-19.052c0-7.057,0.879-13.435,2.646-19.142c1.762-5.703,4.348-10.612,7.761-14.73
			c3.409-4.116,7.645-7.291,12.704-9.527c5.055-2.232,10.874-3.351,17.463-3.351C677.226,775.365,686.634,778.836,693.807,785.773z
			 M665.67,796.005c-2.606,0-4.708,0.617-6.306,1.852c-1.598,1.235-2.873,2.911-3.82,5.027c-0.947,2.118-1.599,4.56-1.954,7.321
			c-0.356,2.765-0.532,5.734-0.532,8.909c0,4.939,0.144,9.203,0.443,12.79c0.296,3.589,0.887,6.588,1.774,8.997
			c0.887,2.412,2.134,4.206,3.732,5.379c1.598,1.179,3.7,1.764,6.306,1.764c5.211,0,8.644-2.262,10.302-6.792
			c1.662-4.526,2.49-10.966,2.49-19.317c0-8.466-0.827-14.906-2.49-19.316C673.958,798.209,670.641,796.005,665.67,796.005z"/>
		<path style="fill:#81BA41;" d="M785.89,785.773c8.468,8.468,12.704,20.582,12.704,36.341c0,7.055-0.915,13.467-2.737,19.228
			c-1.822,5.765-4.468,10.674-7.936,14.732c-3.473,4.056-7.737,7.175-12.792,9.349c-5.055,2.174-10.878,3.263-17.463,3.263
			c-6.59,0-12.38-1.119-17.376-3.351c-5.003-2.234-9.235-5.381-12.704-9.439c-3.469-4.056-6.086-8.965-7.848-14.73
			c-1.766-5.76-2.646-12.112-2.646-19.052c0-7.057,0.879-13.435,2.646-19.142c1.762-5.703,4.348-10.612,7.76-14.73
			c3.409-4.116,7.645-7.291,12.704-9.527c5.055-2.232,10.874-3.351,17.463-3.351C769.31,775.365,778.717,778.836,785.89,785.773z
			 M757.753,796.005c-2.605,0-4.707,0.617-6.306,1.852c-1.598,1.235-2.873,2.911-3.82,5.027c-0.947,2.118-1.598,4.56-1.954,7.321
			c-0.356,2.765-0.531,5.734-0.531,8.909c0,4.939,0.144,9.203,0.444,12.79c0.296,3.589,0.887,6.588,1.774,8.997
			c0.887,2.412,2.134,4.206,3.733,5.379c1.598,1.179,3.7,1.764,6.306,1.764c5.211,0,8.644-2.262,10.302-6.792
			c1.662-4.526,2.49-10.966,2.49-19.317c0-8.466-0.827-14.906-2.49-19.316C766.041,798.209,762.725,796.005,757.753,796.005z"/>
		<path style="fill:#81BA41;" d="M844.81,776.246c5.647,0,11.117,1.297,16.408,3.883v-42.693l1.059-1.235h10.762
			c5.643,0,9.551,1.235,11.729,3.704c2.178,2.472,3.265,6.766,3.265,12.88v87.852c0,6.236,1.646,10.47,4.939,12.702
			c-0.591,2.47-1.706,5.117-3.352,7.938c-1.646,2.823-3.349,4.879-5.115,6.174c-8.588-0.236-14.878-3.527-18.874-9.879
			c-7.057,7.409-15.525,11.113-25.404,11.113c-9.878,0-17.467-4.114-22.758-12.348c-5.291-8.23-7.941-19.521-7.941-33.871
			c0-7.055,0.911-13.435,2.737-19.14c1.822-5.702,4.32-10.554,7.497-14.554c3.173-3.996,6.905-7.085,11.201-9.261
			C835.255,777.335,839.871,776.246,844.81,776.246z M848.243,846.459c4.859,0,9.183-2.294,12.976-6.881v-38.633
			c-4.859-2.823-8.711-4.234-11.553-4.234c-8.06,0-12.089,8.819-12.089,26.461C837.577,838.697,841.133,846.459,848.243,846.459z"/>
	</g>
	<g>
		<path style="fill:#959595;" d="M441.731,922.964c-2.158,0-4.124-0.356-5.898-1.065c-1.774-0.709-3.297-1.744-4.568-3.103
			c-1.271-1.361-2.256-3.039-2.949-5.035c-0.695-1.994-1.043-4.28-1.043-6.852c0-2.572,0.392-4.855,1.177-6.851
			c0.781-1.996,1.84-3.672,3.171-5.033c1.328-1.361,2.881-2.396,4.655-3.105c1.774-0.71,3.666-1.065,5.677-1.065
			c1.271,0,2.418,0.09,3.437,0.268c1.021,0.176,1.908,0.384,2.661,0.619c0.753,0.238,1.367,0.474,1.84,0.709
			c0.474,0.238,0.799,0.416,0.975,0.534l-1.241,3.547c-0.266-0.176-0.651-0.368-1.153-0.575c-0.504-0.208-1.073-0.414-1.708-0.622
			c-0.635-0.206-1.331-0.378-2.084-0.509c-0.753-0.134-1.515-0.2-2.284-0.2c-1.627,0-3.089,0.282-4.39,0.843
			c-1.303,0.562-2.412,1.375-3.327,2.438c-0.917,1.065-1.618,2.36-2.106,3.882c-0.488,1.523-0.733,3.229-0.733,5.121
			c0,1.834,0.216,3.505,0.643,5.011c0.43,1.509,1.071,2.801,1.93,3.88c0.857,1.081,1.928,1.916,3.215,2.506
			c1.287,0.594,2.788,0.887,4.502,0.887c1.98,0,3.62-0.206,4.923-0.62c1.301-0.413,2.276-0.783,2.925-1.109l1.109,3.546
			c-0.206,0.15-0.576,0.334-1.109,0.556c-0.531,0.222-1.197,0.435-1.994,0.643c-0.799,0.206-1.73,0.383-2.795,0.531
			C444.127,922.89,442.974,922.964,441.731,922.964z"/>
		<path style="fill:#959595;" d="M475.435,910.768c0,1.834-0.266,3.489-0.797,4.967c-0.531,1.479-1.279,2.75-2.24,3.815
			c-0.961,1.065-2.106,1.884-3.437,2.462c-1.331,0.576-2.779,0.865-4.346,0.865c-1.568,0-3.017-0.29-4.346-0.865
			c-1.331-0.577-2.477-1.397-3.439-2.462c-0.961-1.065-1.706-2.336-2.24-3.815c-0.531-1.478-0.797-3.133-0.797-4.967
			c0-1.802,0.266-3.451,0.797-4.945c0.534-1.493,1.279-2.771,2.24-3.836c0.961-1.063,2.108-1.884,3.439-2.46
			c1.329-0.577,2.777-0.865,4.346-0.865c1.567,0,3.015,0.288,4.346,0.865c1.331,0.576,2.475,1.397,3.437,2.46
			c0.961,1.065,1.708,2.344,2.24,3.836C475.169,907.317,475.435,908.965,475.435,910.768z M471.133,910.768
			c0-2.602-0.583-4.663-1.75-6.186c-1.169-1.523-2.757-2.284-4.768-2.284c-2.012,0-3.6,0.761-4.767,2.284
			c-1.169,1.523-1.752,3.585-1.752,6.186s0.583,4.666,1.752,6.186c1.167,1.525,2.755,2.286,4.767,2.286
			c2.01,0,3.599-0.761,4.768-2.286C470.55,915.433,471.133,913.369,471.133,910.768z"/>
		<path style="fill:#959595;" d="M481.247,899.902c0.945-0.236,2.194-0.487,3.746-0.753c1.553-0.266,3.349-0.399,5.389-0.399
			c1.478,0,2.719,0.199,3.724,0.599c1.005,0.399,1.848,0.983,2.529,1.752c0.206-0.148,0.532-0.356,0.975-0.621
			c0.444-0.266,0.989-0.526,1.641-0.777c0.649-0.25,1.375-0.472,2.174-0.665c0.797-0.192,1.654-0.288,2.572-0.288
			c1.774,0,3.223,0.259,4.346,0.777c1.123,0.518,2.002,1.249,2.639,2.194c0.635,0.947,1.063,2.07,1.285,3.371
			c0.222,1.301,0.334,2.721,0.334,4.258v12.949h-4.124v-12.062c0-1.361-0.068-2.528-0.199-3.505
			c-0.134-0.975-0.386-1.788-0.753-2.438c-0.372-0.651-0.873-1.131-1.508-1.443c-0.638-0.31-1.457-0.465-2.462-0.465
			c-1.391,0-2.536,0.186-3.437,0.556c-0.903,0.37-1.517,0.701-1.84,0.997c0.236,0.769,0.413,1.612,0.532,2.527
			c0.118,0.917,0.178,1.878,0.178,2.883v12.949h-4.124v-12.062c0-1.361-0.074-2.528-0.222-3.505
			c-0.15-0.975-0.408-1.788-0.777-2.438c-0.37-0.651-0.871-1.131-1.507-1.443c-0.637-0.31-1.442-0.465-2.418-0.465
			c-0.414,0-0.857,0.016-1.331,0.044c-0.473,0.03-0.925,0.068-1.353,0.112c-0.43,0.044-0.819,0.096-1.175,0.156
			c-0.356,0.058-0.591,0.104-0.709,0.132v19.469h-4.124V899.902z"/>
		<path style="fill:#959595;" d="M539.741,910.812c0,1.746-0.23,3.357-0.687,4.835c-0.458,1.479-1.131,2.749-2.018,3.812
			c-0.887,1.065-1.972,1.894-3.259,2.484c-1.287,0.592-2.758,0.887-4.414,0.887c-1.329,0-2.505-0.176-3.524-0.532
			c-1.021-0.356-1.782-0.693-2.284-1.019v9.223h-4.124v-30.557c0.975-0.236,2.194-0.494,3.658-0.775
			c1.463-0.28,3.155-0.421,5.077-0.421c1.774,0,3.371,0.282,4.789,0.843c1.421,0.561,2.632,1.361,3.636,2.394
			c1.005,1.037,1.782,2.3,2.33,3.792C539.467,907.273,539.741,908.949,539.741,910.812z M535.44,910.812
			c0-2.69-0.666-4.759-1.996-6.208c-1.329-1.448-3.103-2.174-5.321-2.174c-1.243,0-2.21,0.046-2.905,0.134
			c-0.695,0.088-1.249,0.192-1.662,0.31v14.546c0.501,0.416,1.227,0.815,2.172,1.199c0.947,0.384,1.982,0.576,3.105,0.576
			c1.183,0,2.196-0.214,3.037-0.644c0.843-0.428,1.531-1.019,2.064-1.772c0.531-0.755,0.915-1.642,1.153-2.662
			C535.322,913.095,535.44,911.994,535.44,910.812z"/>
		<path style="fill:#959595;" d="M553.001,898.661c1.656,0,3.053,0.214,4.192,0.643c1.137,0.427,2.054,1.035,2.749,1.818
			c0.695,0.783,1.191,1.714,1.486,2.794c0.294,1.079,0.444,2.27,0.444,3.57v14.412c-0.356,0.06-0.851,0.142-1.487,0.244
			c-0.635,0.104-1.353,0.2-2.15,0.29c-0.799,0.088-1.664,0.17-2.595,0.244c-0.931,0.072-1.856,0.11-2.772,0.11
			c-1.3,0-2.499-0.132-3.592-0.4c-1.095-0.266-2.04-0.687-2.838-1.263c-0.799-0.577-1.421-1.339-1.864-2.284
			c-0.443-0.947-0.665-2.084-0.665-3.414c0-1.271,0.26-2.366,0.777-3.283c0.518-0.915,1.219-1.654,2.106-2.218
			c0.887-0.56,1.922-0.975,3.105-1.241c1.181-0.266,2.424-0.399,3.724-0.399c0.414,0,0.843,0.022,1.287,0.066
			c0.444,0.046,0.865,0.106,1.263,0.178c0.4,0.074,0.747,0.142,1.043,0.2c0.296,0.06,0.503,0.104,0.621,0.134v-1.153
			c0-0.681-0.074-1.353-0.222-2.018c-0.148-0.666-0.416-1.257-0.799-1.774c-0.384-0.518-0.909-0.931-1.575-1.243
			c-0.665-0.31-1.529-0.465-2.594-0.465c-1.361,0-2.549,0.098-3.57,0.29c-1.019,0.192-1.78,0.392-2.284,0.598l-0.488-3.415
			c0.532-0.236,1.419-0.466,2.662-0.687C550.207,898.771,551.552,898.661,553.001,898.661z M553.356,919.327
			c0.975,0,1.84-0.022,2.596-0.066c0.753-0.046,1.381-0.126,1.884-0.244v-6.875c-0.296-0.148-0.777-0.272-1.443-0.375
			c-0.663-0.104-1.471-0.156-2.416-0.156c-0.622,0-1.279,0.044-1.974,0.132c-0.695,0.09-1.331,0.274-1.906,0.555
			c-0.578,0.282-1.059,0.665-1.443,1.153c-0.384,0.488-0.576,1.131-0.576,1.928c0,1.48,0.472,2.508,1.419,3.083
			C550.443,919.04,551.73,919.327,553.356,919.327z"/>
		<path style="fill:#959595;" d="M568.699,899.902c0.945-0.236,2.202-0.487,3.768-0.753c1.567-0.266,3.371-0.399,5.411-0.399
			c1.832,0,3.355,0.259,4.568,0.777c1.213,0.518,2.18,1.241,2.905,2.172c0.723,0.931,1.235,2.048,1.531,3.349
			c0.296,1.301,0.443,2.735,0.443,4.302v12.949h-4.124v-12.062c0-1.418-0.098-2.631-0.29-3.636c-0.192-1.005-0.51-1.818-0.953-2.44
			c-0.443-0.621-1.035-1.071-1.774-1.353c-0.739-0.28-1.656-0.422-2.749-0.422c-0.443,0-0.901,0.016-1.375,0.044
			c-0.473,0.03-0.925,0.068-1.353,0.112c-0.43,0.044-0.813,0.096-1.153,0.156c-0.34,0.058-0.584,0.104-0.731,0.132v19.469h-4.124
			V899.902z"/>
		<path style="fill:#959595;" d="M590.652,926.6c0.324,0.148,0.745,0.288,1.263,0.422c0.517,0.132,1.027,0.2,1.531,0.2
			c1.626,0,2.898-0.364,3.813-1.087c0.915-0.725,1.746-1.9,2.486-3.527c-1.862-3.547-3.601-7.309-5.212-11.285
			c-1.613-3.976-2.949-8.006-4.014-12.086h4.436c0.324,1.331,0.714,2.765,1.174,4.302c0.46,1.538,0.967,3.121,1.531,4.745
			c0.563,1.626,1.167,3.253,1.818,4.879c0.651,1.626,1.331,3.193,2.042,4.7c1.123-3.103,2.098-6.178,2.925-9.224
			c0.827-3.045,1.611-6.18,2.35-9.403h4.26c-1.067,4.346-2.25,8.524-3.549,12.53c-1.303,4.006-2.705,7.752-4.216,11.241
			c-0.591,1.331-1.203,2.476-1.838,3.437c-0.635,0.961-1.339,1.752-2.106,2.374c-0.771,0.619-1.634,1.079-2.594,1.374
			c-0.963,0.296-2.049,0.444-3.262,0.444c-0.325,0-0.665-0.022-1.019-0.068c-0.356-0.044-0.703-0.104-1.043-0.176
			c-0.34-0.074-0.651-0.156-0.931-0.244c-0.282-0.09-0.482-0.164-0.6-0.222L590.652,926.6z"/>
		<path style="fill:#959595;" d="M633.049,919.24c4.492,0,6.741-1.539,6.741-4.614c0-0.945-0.2-1.752-0.599-2.416
			c-0.4-0.666-0.939-1.243-1.618-1.73c-0.68-0.488-1.459-0.909-2.33-1.265c-0.871-0.354-1.794-0.709-2.769-1.063
			c-1.127-0.386-2.19-0.821-3.193-1.309c-1.007-0.488-1.878-1.065-2.618-1.73c-0.739-0.665-1.323-1.454-1.754-2.372
			c-0.427-0.917-0.639-2.026-0.639-3.327c0-2.69,0.915-4.789,2.749-6.298c1.83-1.507,4.36-2.262,7.581-2.262
			c1.862,0,3.557,0.2,5.079,0.599c1.522,0.4,2.637,0.835,3.349,1.309l-1.375,3.503c-0.62-0.383-1.547-0.761-2.773-1.131
			c-1.227-0.37-2.653-0.553-4.28-0.553c-0.827,0-1.594,0.088-2.306,0.266c-0.707,0.178-1.331,0.444-1.862,0.797
			c-0.531,0.355-0.951,0.807-1.263,1.353c-0.312,0.547-0.467,1.191-0.467,1.93c0,0.827,0.164,1.523,0.487,2.084
			c0.328,0.561,0.783,1.057,1.375,1.486c0.591,0.428,1.279,0.819,2.062,1.175c0.783,0.354,1.65,0.709,2.597,1.065
			c1.331,0.532,2.549,1.063,3.656,1.597c1.111,0.531,2.07,1.167,2.885,1.906c0.811,0.739,1.438,1.619,1.882,2.64
			c0.444,1.019,0.667,2.254,0.667,3.702c0,2.692-0.983,4.761-2.949,6.208c-1.966,1.451-4.739,2.174-8.316,2.174
			c-1.215,0-2.33-0.082-3.349-0.244c-1.019-0.164-1.93-0.356-2.725-0.577c-0.799-0.222-1.487-0.458-2.066-0.709
			c-0.575-0.25-1.027-0.466-1.351-0.643l1.287-3.547c0.679,0.384,1.714,0.813,3.105,1.285
			C629.336,919.002,631.039,919.24,633.049,919.24z"/>
		<path style="fill:#959595;" d="M656.155,922.742c-2.546-0.06-4.348-0.605-5.411-1.64c-1.063-1.035-1.599-2.646-1.599-4.835
			v-27.673l4.124-0.709v27.717c0,0.681,0.06,1.243,0.18,1.686c0.116,0.443,0.312,0.797,0.575,1.065
			c0.268,0.266,0.624,0.466,1.063,0.597c0.444,0.134,0.991,0.244,1.642,0.334L656.155,922.742z"/>
		<path style="fill:#959595;" d="M681.698,910.768c0,1.834-0.268,3.489-0.799,4.967c-0.531,1.479-1.279,2.75-2.238,3.815
			c-0.963,1.065-2.106,1.884-3.437,2.462c-1.331,0.576-2.781,0.865-4.348,0.865c-1.567,0-3.017-0.29-4.344-0.865
			c-1.331-0.577-2.478-1.397-3.441-2.462c-0.959-1.065-1.707-2.336-2.238-3.815c-0.532-1.478-0.799-3.133-0.799-4.967
			c0-1.802,0.268-3.451,0.799-4.945c0.531-1.493,1.279-2.771,2.238-3.836c0.963-1.063,2.11-1.884,3.441-2.46
			c1.326-0.577,2.777-0.865,4.344-0.865c1.566,0,3.017,0.288,4.348,0.865c1.331,0.576,2.474,1.397,3.437,2.46
			c0.959,1.065,1.707,2.344,2.238,3.836C681.431,907.317,681.698,908.965,681.698,910.768z M677.394,910.768
			c0-2.602-0.583-4.663-1.75-6.186c-1.167-1.523-2.758-2.284-4.767-2.284c-2.01,0-3.601,0.761-4.768,2.284
			c-1.167,1.523-1.75,3.585-1.75,6.186s0.583,4.666,1.75,6.186c1.167,1.525,2.758,2.286,4.768,2.286c2.01,0,3.6-0.761,4.767-2.286
			C676.811,915.433,677.394,913.369,677.394,910.768z"/>
		<path style="fill:#959595;" d="M701.967,919.993c-0.356,0.236-1.043,0.539-2.062,0.909c-1.019,0.37-2.21,0.554-3.568,0.554
			c-1.391,0-2.702-0.222-3.928-0.665c-1.227-0.444-2.298-1.131-3.213-2.062c-0.919-0.931-1.642-2.09-2.174-3.481
			c-0.531-1.389-0.799-3.045-0.799-4.967c0-1.684,0.252-3.229,0.755-4.633c0.504-1.405,1.235-2.618,2.194-3.637
			c0.963-1.021,2.138-1.818,3.529-2.396c1.386-0.577,2.953-0.865,4.7-0.865c1.922,0,3.6,0.142,5.031,0.421
			c1.435,0.282,2.641,0.54,3.617,0.775v20.578c0,3.549-0.915,6.12-2.749,7.717c-1.834,1.596-4.612,2.396-8.34,2.396
			c-1.446,0-2.813-0.12-4.1-0.355c-1.287-0.236-2.402-0.518-3.349-0.843l0.755-3.591c0.827,0.324,1.838,0.614,3.037,0.863
			c1.199,0.252,2.446,0.378,3.749,0.378c2.454,0,4.22-0.487,5.299-1.463c1.079-0.977,1.618-2.528,1.618-4.658V919.993z
			 M701.923,902.873c-0.416-0.118-0.971-0.228-1.662-0.332c-0.695-0.104-1.634-0.156-2.817-0.156c-2.218,0-3.924,0.725-5.123,2.174
			c-1.195,1.449-1.794,3.371-1.794,5.765c0,1.331,0.168,2.469,0.508,3.414c0.34,0.947,0.799,1.73,1.375,2.352
			c0.579,0.619,1.243,1.079,1.998,1.375c0.751,0.296,1.531,0.443,2.326,0.443c1.095,0,2.102-0.156,3.017-0.466
			c0.915-0.312,1.643-0.673,2.174-1.087V902.873z"/>
		<path style="fill:#959595;" d="M720.589,898.661c1.659,0,3.053,0.214,4.192,0.643c1.139,0.427,2.054,1.035,2.749,1.818
			c0.695,0.783,1.191,1.714,1.487,2.794c0.296,1.079,0.444,2.27,0.444,3.57v14.412c-0.356,0.06-0.851,0.142-1.487,0.244
			c-0.635,0.104-1.351,0.2-2.15,0.29c-0.799,0.088-1.662,0.17-2.594,0.244c-0.931,0.072-1.858,0.11-2.773,0.11
			c-1.298,0-2.498-0.132-3.592-0.4c-1.095-0.266-2.038-0.687-2.837-1.263c-0.799-0.577-1.419-1.339-1.862-2.284
			c-0.444-0.947-0.668-2.084-0.668-3.414c0-1.271,0.26-2.366,0.779-3.283c0.515-0.915,1.219-1.654,2.106-2.218
			c0.887-0.56,1.922-0.975,3.105-1.241c1.179-0.266,2.422-0.399,3.725-0.399c0.411,0,0.843,0.022,1.287,0.066
			c0.443,0.046,0.863,0.106,1.263,0.178c0.399,0.074,0.747,0.142,1.043,0.2c0.296,0.06,0.504,0.104,0.619,0.134v-1.153
			c0-0.681-0.072-1.353-0.22-2.018c-0.148-0.666-0.416-1.257-0.799-1.774c-0.384-0.518-0.911-0.931-1.575-1.243
			c-0.667-0.31-1.531-0.465-2.594-0.465c-1.363,0-2.549,0.098-3.573,0.29c-1.019,0.192-1.778,0.392-2.282,0.598l-0.487-3.415
			c0.532-0.236,1.419-0.466,2.661-0.687C717.795,898.771,719.142,898.661,720.589,898.661z M720.945,919.327
			c0.975,0,1.842-0.022,2.598-0.066c0.751-0.046,1.379-0.126,1.882-0.244v-6.875c-0.296-0.148-0.775-0.272-1.443-0.375
			c-0.663-0.104-1.471-0.156-2.414-0.156c-0.624,0-1.279,0.044-1.974,0.132c-0.695,0.09-1.331,0.274-1.906,0.555
			c-0.579,0.282-1.059,0.665-1.443,1.153c-0.384,0.488-0.575,1.131-0.575,1.928c0,1.48,0.471,2.508,1.419,3.083
			C718.031,919.04,719.318,919.327,720.945,919.327z"/>
		<path style="fill:#959595;" d="M736.29,899.902c0.947-0.236,2.202-0.487,3.768-0.753c1.566-0.266,3.373-0.399,5.411-0.399
			c1.834,0,3.357,0.259,4.568,0.777c1.215,0.518,2.182,1.241,2.905,2.172c0.723,0.931,1.235,2.048,1.53,3.349
			c0.296,1.301,0.444,2.735,0.444,4.302v12.949h-4.124v-12.062c0-1.418-0.096-2.631-0.288-3.636
			c-0.192-1.005-0.512-1.818-0.955-2.44c-0.444-0.621-1.035-1.071-1.774-1.353c-0.739-0.28-1.654-0.422-2.749-0.422
			c-0.444,0-0.899,0.016-1.375,0.044c-0.471,0.03-0.923,0.068-1.351,0.112c-0.432,0.044-0.815,0.096-1.155,0.156
			c-0.34,0.058-0.583,0.104-0.731,0.132v19.469h-4.124V899.902z"/>
	</g>
</g>
<g id="Logo">
</g>
</svg>
